<svg role="img" xmlns="http://www.w3.org/2000/svg" viewBox="0 0 24 24"><title>Minimax</title><path fill="currentColor" fill-rule="evenodd" d="M16.28 2c1.15 0 2.1.93 2.1 2.07v12.5a.74.74 0 0 0 .73.71.74.74 0 0 0 .75-.7V9.1a2.06 2.06 0 0 1 2.07-2.05A2.06 2.06 0 0 1 24 9.1v6.56a.65.65 0 0 1-.65.65.65.65 0 0 1-.66-.65V9.1a.76.76 0 0 0-.76-.76.76.76 0 0 0-.77.76v7.47a2.04 2.04 0 0 1-2.04 2.03 2.04 2.04 0 0 1-2.05-2.03V4.07a.8.8 0 0 0-.8-.75.8.8 0 0 0-.78.75v15.9A2.04 2.04 0 0 1 13.44 22a2.04 2.04 0 0 1-2.05-2.03v-1.93c0-.36.3-.64.66-.64.35 0 .65.28.65.64v1.93c0 .27.14.51.37.64s.51.13.74 0a.7.7 0 0 0 .37-.64V4.07c0-1.14.94-2.07 2.1-2.07M10.6 2c1.16 0 2.1.93 2.1 2.07v11.52a.65.65 0 0 1-.66.65.65.65 0 0 1-.65-.65V4.07a.8.8 0 0 0-.79-.78.8.8 0 0 0-.78.78v14.01a2.06 2.06 0 0 1-2.07 2.05 2.06 2.06 0 0 1-2.08-2.05V9.1a.76.76 0 0 0-.76-.76.76.76 0 0 0-.77.76v3.8a2.06 2.06 0 0 1-2.07 2.05A2.06 2.06 0 0 1 0 12.9v-1.38a.65.65 0 0 1 1.3 0v1.38c0 .42.35.76.77.76s.77-.34.77-.76V9.1A2.06 2.06 0 0 1 4.9 7.05 2.06 2.06 0 0 1 6.98 9.1v8.98a.76.76 0 0 0 1.53 0V4.07c0-1.14.94-2.07 2.1-2.07"/></svg>