<svg role="img" xmlns="http://www.w3.org/2000/svg" viewBox="0 0 24 24"><title>Zhipu</title><path fill="currentColor" fill-rule="evenodd" d="M12 23.5a.24.24 0 0 0-.25.25.24.24 0 0 0 .24.25.24.24 0 0 0 .25-.25.24.24 0 0 0-.22-.25zM9.66 5.37a1.7 1.7 0 0 1 1.1 2.13l-.07.17-.02.04-.01.05q-.11.24-.1.5c-.04.71.46 1.28 1.18 1.32h.36a2.4 2.4 0 0 1 2.29 2.52 2.4 2.4 0 0 1-2.48 2.33h-.17a1.3 1.3 0 0 0-1.24 1.36q0 .19.05.34.32.57.96.8c.75.23 1.52-.12 1.9-.78l.02-.04c.4-.64 1.17-.96 1.92-.7a1.75 1.75 0 0 1 1.1 2.16 1.66 1.66 0 0 1-2.08 1.1 1.7 1.7 0 0 1-.9-.71l-.02-.03q-.29-.5-.85-.72l-.06-.01a1.65 1.65 0 0 0-1.95.74 1.7 1.7 0 0 1-1.07.77 1.7 1.7 0 0 1-1.99-1.28 1.7 1.7 0 0 1 1.26-2.05l.3-.03h.01a1.23 1.23 0 0 0 1.12-1.33 1.3 1.3 0 0 0-.23-.7 2.5 2.5 0 0 1-.36-1.4 2.4 2.4 0 0 1 .36-1.2q.2-.31.23-.7a1.3 1.3 0 0 0-1.19-1.33l-.07-.02-.3-.07-.05-.02a1.7 1.7 0 0 1-1.04-2.11 1.7 1.7 0 0 1 2.1-1.1M4.1 15.47c.26-.26.63-.36.99-.26.35.1.63.37.73.74.1.36 0 .74-.27 1-.4.42-1.05.42-1.45 0a1.06 1.06 0 0 1 0-1.47zm14.84-.29c.36-.09.74.03 1 .3.25.27.34.66.23 1.02a1.03 1.03 0 0 1-1.99-.06 1.05 1.05 0 0 1 .76-1.26m-.06-4.39a1.7 1.7 0 0 1 0 2.41 1.66 1.66 0 0 1-2.37 0 1.73 1.73 0 0 1 0-2.4 1.65 1.65 0 0 1 2.37 0m-11.25.16c.37.49.45 1.13.22 1.7a1.67 1.67 0 0 1-2.19.92 1.7 1.7 0 0 1-.9-2.23 1.7 1.7 0 0 1 1.33-1.04c.59-.08 1.18.17 1.54.65m11.55-4.22c.37 0 .7.2.9.53.17.32.17.72 0 1.05a1 1 0 0 1-.9.52c-.57 0-1.03-.47-1.03-1.05s.46-1.05 1.03-1.05m-14.36 0c.37 0 .7.2.9.53.18.32.18.72 0 1.05a1 1 0 0 1-.9.52c-.57 0-1.03-.47-1.03-1.05s.46-1.05 1.03-1.05m10.03-1.47c.93 0 1.68.76 1.68 1.7s-.75 1.7-1.68 1.7-1.67-.75-1.67-1.7c0-.94.75-1.7 1.67-1.7m-2.62-.69c.36-.08.65-.35.76-.71a1 1 0 0 0-.24-1.03 1 1 0 0 0-1-.3 1.05 1.05 0 0 0 .48 2.04m0 16.88c.35-.09.64-.36.75-.72a1 1 0 0 0-.24-1.02 1 1 0 0 0-.99-.3 1 1 0 0 0-.76.72c-.1.36-.02.75.24 1.03.25.26.6.37.95.3zM17.19 3.5a.63.63 0 0 0 .63-.64.63.63 0 0 0-.63-.64.63.63 0 0 0-.63.64c0 .36.28.64.63.64m-10.38 0a.63.63 0 0 0 .63-.64.63.63 0 0 0-.63-.64.63.63 0 0 0-.63.64c0 .36.28.64.63.64m-5.18 7.85A.63.63 0 0 0 1 12c0 .36.28.64.63.64a.63.63 0 0 0 .63-.6v-.04a.6.6 0 0 0-.63-.64zm5.18 9.13a.63.63 0 0 0-.63.64c0 .36.28.64.63.64a.63.63 0 0 0 .63-.64.63.63 0 0 0-.63-.64m10.38.02a.63.63 0 0 0-.63.64c0 .36.28.64.63.64a.63.63 0 0 0 .63-.64.63.63 0 0 0-.63-.64m5.18-9.15a.63.63 0 0 0-.63.64c0 .36.28.64.63.64A.63.63 0 0 0 23 12a.63.63 0 0 0-.63-.64zM22 6.36a.24.24 0 0 0 .24-.25.24.24 0 0 0-.24-.25.24.24 0 0 0-.25.25c0 .14.13.25.25.25M11.99.5a.24.24 0 0 0 .25-.25.24.24 0 0 0-.25-.25.24.24 0 0 0-.24.25c0 .13.1.24.22.25zM2.01 6.36a.24.24 0 0 0 .25-.25.24.24 0 0 0-.25-.25.24.24 0 0 0-.24.25.24.24 0 0 0 .24.25zm0 11.26a.24.24 0 0 0-.24.25.24.24 0 0 0 .24.25.24.24 0 0 0 .25-.25.25.25 0 0 0-.25-.25zm20-.01a.24.24 0 0 0-.25.24.24.24 0 0 0 .25.25.24.24 0 0 0 .24-.25.25.25 0 0 0-.24-.24"/></svg>